<svg width="73" height="93" viewBox="0 0 63 83" fill="none" xmlns="http://www.w3.org/2000/svg">
<path d="M18.708 64.1764C19.5461 64.1764 20.2953 63.6539 20.5848 62.8674L26.7024 46.2533C27.1891 44.9315 26.1934 43.5341 24.7851 43.5627L17.1706 43.717C16.3727 43.7332 15.6608 44.2222 15.3594 44.9611L11.945 53.3295C11.8296 53.6125 11.7805 53.9183 11.8016 54.2232L12.3618 62.3145C12.4344 63.363 13.306 64.1764 14.357 64.1764H18.708Z" fill="#000A12"/>
<path d="M10.9671 45.8269L6.56006 47.9904V48.5513L11.4479 49.9936L11.1274 45.7468L10.9671 45.8269Z" fill="#F6FAFD"/>
<path d="M13.5312 64.1763L15.8549 73.4712H16.1754L18.8197 64.1763H13.5312Z" fill="#F6FAFD"/>
<path d="M22.8261 57.125L23.0665 57.5257L31.7203 57.9263L25.7107 49.2724L22.8261 57.125Z" fill="#F6FAFD"/>
<path d="M52.3934 49.593L55.9992 39.0962L53.6754 34.0481L52.3934 49.593Z" fill="#F6FAFD"/>
<path d="M47.6658 18.2628L54.0761 11.9327L52.3934 9.60899L43.419 11.2917L47.6658 18.2628Z" fill="#F6FAFD"/>
<path d="M43.419 11.2917L44.4607 4.72117L44.3806 4.56091H43.8998L40.7748 6.64425L39.0921 11.7725L43.419 11.2917Z" fill="#F6FAFD"/>
<path d="M11.8496 53.5994L15.856 43.6635L11.0483 45.6667L11.8496 53.5994Z" fill="#000A12"/>
<path d="M25.7118 49.1924L31.8015 58.0065L42.2182 64.3366L40.9362 41.8206L27.715 43.343L25.7118 49.1924Z" fill="#000A12"/>
<path d="M39.0938 11.7725L43.4207 11.2917L47.6675 18.1827L53.7572 34.3686L52.395 49.5128L45.4239 64.3366L43.3405 73.4712H42.8598L42.6194 73.2308L42.2989 64.3366L39.0938 11.7725Z" fill="#000A12"/>
<g filter="url(#filter0_d_27:806)">
<path d="M43.3737 73.4608C44.1627 69.9354 45.3939 64.4334 45.3939 64.4334M43.3737 73.4608V73.4608C42.9506 73.4608 42.6031 73.1265 42.5866 72.7038L42.2616 64.371M43.3737 73.4608L45.3939 64.4334M45.3939 64.4334L52.4646 49.3877M52.4646 49.3877L53.7273 34.0913M52.4646 49.3877L55.8707 39.4824C55.9538 39.241 55.9413 38.977 55.8359 38.7445L53.7273 34.0913M53.7273 34.0913L47.6667 18.2934M47.6667 18.2934L53.6015 12.4C53.9613 12.0427 53.9968 11.4729 53.6842 11.0738L52.8415 9.99784C52.6101 9.7025 52.233 9.56147 51.8646 9.6326L43.3737 11.2721M47.6667 18.2934L45.5202 14.7827L43.3737 11.2721M43.3737 11.2721L44.2396 6.28527C44.3896 5.42107 43.4337 4.79618 42.7023 5.28036L41.1351 6.31786C40.9494 6.44083 40.81 6.6223 40.7391 6.83347L39.0808 11.7736M43.3737 11.2721L41.2273 11.5228L39.0808 11.7736M39.0808 11.7736L40.9567 41.8649M31.7576 57.9136L39.0808 62.4273L42.2616 64.371M31.7576 57.9136L25.697 49.137M31.7576 57.9136L24.0149 57.4865C23.3442 57.4495 22.9 56.7749 23.131 56.1441L25.697 49.137M25.697 49.137L27.7172 43.3695M25.697 49.137L25.911 48.5259M27.7172 43.3695L40.9567 41.8649M27.7172 43.3695L15.8485 43.6202M27.7172 43.3695L25.911 48.5259M40.9567 41.8649L42.2542 62.6781L42.3562 64.314C42.3593 64.3643 42.3046 64.3973 42.2616 64.371V64.371M15.8485 43.6202L11.8914 53.6894C11.8366 53.829 11.8138 53.9791 11.8248 54.1286L11.845 54.4029M15.8485 43.6202L11.0505 45.6263M25.911 48.5259C23.8236 54.0849 22.4204 58.0918 20.3848 63.5332C20.2388 63.9235 19.8654 64.1826 19.4487 64.1826H18.8788M11.0505 45.6263L11.4478 50.0146M11.0505 45.6263L8.10329 47.236C7.3236 47.6618 7.44486 48.817 8.29598 49.0716L11.4478 50.0146M11.845 54.4029L12.4974 63.2561C12.5359 63.7785 12.9709 64.1826 13.4947 64.1826H13.5758M11.845 54.4029L11.4478 50.0146M13.5758 64.1826L15.7521 73.3074C15.8014 73.5142 16.0302 73.6213 16.2206 73.5268V73.5268C16.3052 73.4848 16.3677 73.4087 16.3925 73.3176L18.8788 64.1826M13.5758 64.1826H18.3737H18.8788M42.2542 64.1826L42.2616 64.371" stroke="#000A12" stroke-width="2" shape-rendering="crispEdges"/>
</g>
<defs>
<filter id="filter0_d_27:806" x="0.582031" y="0.108521" width="62.3433" height="82.4536" filterUnits="userSpaceOnUse" color-interpolation-filters="sRGB">
<feFlood flood-opacity="0" result="BackgroundImageFix"/>
<feColorMatrix in="SourceAlpha" type="matrix" values="0 0 0 0 0 0 0 0 0 0 0 0 0 0 0 0 0 0 127 0" result="hardAlpha"/>
<feOffset dy="2"/>
<feGaussianBlur stdDeviation="3"/>
<feComposite in2="hardAlpha" operator="out"/>
<feColorMatrix type="matrix" values="0 0 0 0 0 0 0 0 0 0.0392157 0 0 0 0 0.0705882 0 0 0 0.5 0"/>
<feBlend mode="normal" in2="BackgroundImageFix" result="effect1_dropShadow_27:806"/>
<feBlend mode="normal" in="SourceGraphic" in2="effect1_dropShadow_27:806" result="shape"/>
</filter>
</defs>
</svg>
